<mxfile host="Electron" modified="2023-09-04T20:06:05.050Z" agent="Mozilla/5.0 (Windows NT 10.0; Win64; x64) AppleWebKit/537.36 (KHTML, like Gecko) draw.io/21.6.5 Chrome/114.0.5735.243 Electron/25.3.1 Safari/537.36" etag="1yDi02iqdo0AICI4ep4-" version="21.6.5" type="device">
  <diagram id="3Z-C-78g_D2M4Hc5ZRfr" name="ページ1">
    <mxGraphModel dx="1418" dy="820" grid="1" gridSize="10" guides="1" tooltips="1" connect="1" arrows="1" fold="1" page="1" pageScale="1" pageWidth="827" pageHeight="1169" math="1" shadow="0">
      <root>
        <mxCell id="0" />
        <mxCell id="1" parent="0" />
        <mxCell id="JKdnkWJyfVDF3cyXRBnW-21" value="&lt;span style=&quot;font-size: 24px;&quot;&gt;`i_{l}`&lt;/span&gt;" style="text;html=1;align=center;verticalAlign=middle;resizable=0;points=[];autosize=1;strokeColor=none;fillColor=none;fontSize=11;fontFamily=Helvetica;fontColor=default;" parent="1" vertex="1">
          <mxGeometry x="500" y="660" width="80" height="40" as="geometry" />
        </mxCell>
        <mxCell id="Hx_Fb0d7paaMFf6icbwY-118" value="&lt;font style=&quot;font-size: 24px;&quot;&gt;`-g_{m n}v_{i n}`&lt;/font&gt;" style="text;html=1;align=center;verticalAlign=middle;resizable=0;points=[];autosize=1;strokeColor=none;fillColor=none;fontSize=11;fontFamily=Helvetica;fontColor=default;" parent="1" vertex="1">
          <mxGeometry x="1520" y="461" width="200" height="40" as="geometry" />
        </mxCell>
        <mxCell id="Hx_Fb0d7paaMFf6icbwY-153" value="&lt;font style=&quot;font-size: 24px;&quot;&gt;`g_{m n}v_{i n}`&lt;/font&gt;" style="text;html=1;align=center;verticalAlign=middle;resizable=0;points=[];autosize=1;strokeColor=none;fillColor=none;fontSize=11;fontFamily=Helvetica;fontColor=default;" parent="1" vertex="1">
          <mxGeometry x="121" y="460" width="190" height="40" as="geometry" />
        </mxCell>
        <mxCell id="5XcIdOqlf6TmVMvbWogk-29" style="edgeStyle=orthogonalEdgeStyle;shape=connector;rounded=0;orthogonalLoop=1;jettySize=auto;html=1;exitX=1;exitY=0.5;exitDx=0;exitDy=0;exitPerimeter=0;labelBackgroundColor=default;strokeColor=default;fontFamily=Helvetica;fontSize=11;fontColor=default;endArrow=none;endFill=0;" parent="1" source="Hx_Fb0d7paaMFf6icbwY-1" edge="1">
          <mxGeometry relative="1" as="geometry">
            <mxPoint x="361" y="360" as="targetPoint" />
          </mxGeometry>
        </mxCell>
        <mxCell id="Hx_Fb0d7paaMFf6icbwY-1" value="" style="pointerEvents=1;verticalLabelPosition=bottom;shadow=0;dashed=0;align=center;html=1;verticalAlign=top;shape=mxgraph.electrical.resistors.resistor_1;direction=south;flipV=1;" parent="1" vertex="1">
          <mxGeometry x="351" y="390" width="20" height="100" as="geometry" />
        </mxCell>
        <mxCell id="5XcIdOqlf6TmVMvbWogk-35" style="edgeStyle=orthogonalEdgeStyle;shape=connector;rounded=0;orthogonalLoop=1;jettySize=auto;html=1;exitX=0.5;exitY=0;exitDx=0;exitDy=0;exitPerimeter=0;labelBackgroundColor=default;strokeColor=default;fontFamily=Helvetica;fontSize=11;fontColor=default;endArrow=none;endFill=0;" parent="1" source="Hx_Fb0d7paaMFf6icbwY-2" edge="1">
          <mxGeometry relative="1" as="geometry">
            <mxPoint x="281" y="360" as="targetPoint" />
          </mxGeometry>
        </mxCell>
        <mxCell id="5XcIdOqlf6TmVMvbWogk-36" style="edgeStyle=orthogonalEdgeStyle;shape=connector;rounded=0;orthogonalLoop=1;jettySize=auto;html=1;exitX=0.5;exitY=1;exitDx=0;exitDy=0;exitPerimeter=0;entryX=0;entryY=0.5;entryDx=0;entryDy=0;entryPerimeter=0;labelBackgroundColor=default;strokeColor=default;fontFamily=Helvetica;fontSize=11;fontColor=default;endArrow=none;endFill=0;" parent="1" source="Hx_Fb0d7paaMFf6icbwY-2" target="Hx_Fb0d7paaMFf6icbwY-1" edge="1">
          <mxGeometry relative="1" as="geometry">
            <Array as="points">
              <mxPoint x="281" y="520" />
              <mxPoint x="361" y="520" />
            </Array>
          </mxGeometry>
        </mxCell>
        <mxCell id="Hx_Fb0d7paaMFf6icbwY-2" value="" style="pointerEvents=1;verticalLabelPosition=bottom;shadow=0;dashed=0;align=center;html=1;verticalAlign=top;shape=mxgraph.electrical.signal_sources.source;aspect=fixed;points=[[0.5,0,0],[1,0.5,0],[0.5,1,0],[0,0.5,0]];elSignalType=dc2;flipV=0;" parent="1" vertex="1">
          <mxGeometry x="251" y="410" width="60" height="60" as="geometry" />
        </mxCell>
        <mxCell id="Hx_Fb0d7paaMFf6icbwY-4" value="" style="verticalLabelPosition=bottom;shadow=0;dashed=0;align=center;html=1;verticalAlign=top;strokeWidth=1;shape=ellipse;perimeter=ellipsePerimeter;aspect=fixed;" parent="1" vertex="1">
          <mxGeometry x="157" y="356" width="8" height="8" as="geometry" />
        </mxCell>
        <mxCell id="5XcIdOqlf6TmVMvbWogk-30" style="edgeStyle=orthogonalEdgeStyle;shape=connector;rounded=0;orthogonalLoop=1;jettySize=auto;html=1;exitX=1;exitY=0.5;exitDx=0;exitDy=0;exitPerimeter=0;labelBackgroundColor=default;strokeColor=default;fontFamily=Helvetica;fontSize=11;fontColor=default;endArrow=none;endFill=0;" parent="1" source="Hx_Fb0d7paaMFf6icbwY-5" edge="1">
          <mxGeometry relative="1" as="geometry">
            <mxPoint x="1480" y="361" as="targetPoint" />
          </mxGeometry>
        </mxCell>
        <mxCell id="Hx_Fb0d7paaMFf6icbwY-5" value="" style="pointerEvents=1;verticalLabelPosition=bottom;shadow=0;dashed=0;align=center;html=1;verticalAlign=top;shape=mxgraph.electrical.resistors.resistor_1;direction=south;flipH=1;flipV=1;" parent="1" vertex="1">
          <mxGeometry x="1470" y="391" width="20" height="100" as="geometry" />
        </mxCell>
        <mxCell id="5XcIdOqlf6TmVMvbWogk-37" style="edgeStyle=orthogonalEdgeStyle;shape=connector;rounded=0;orthogonalLoop=1;jettySize=auto;html=1;exitX=0.5;exitY=1;exitDx=0;exitDy=0;exitPerimeter=0;entryX=0;entryY=0.5;entryDx=0;entryDy=0;entryPerimeter=0;labelBackgroundColor=default;strokeColor=default;fontFamily=Helvetica;fontSize=11;fontColor=default;endArrow=none;endFill=0;" parent="1" source="Hx_Fb0d7paaMFf6icbwY-6" target="Hx_Fb0d7paaMFf6icbwY-5" edge="1">
          <mxGeometry y="10" relative="1" as="geometry">
            <Array as="points">
              <mxPoint x="1560" y="521" />
              <mxPoint x="1480" y="521" />
            </Array>
            <mxPoint as="offset" />
          </mxGeometry>
        </mxCell>
        <mxCell id="LBLawg_SK_PcNN09mtRT-13" style="edgeStyle=orthogonalEdgeStyle;shape=connector;rounded=0;orthogonalLoop=1;jettySize=auto;html=1;exitX=0.5;exitY=0;exitDx=0;exitDy=0;exitPerimeter=0;labelBackgroundColor=default;strokeColor=default;fontFamily=Helvetica;fontSize=11;fontColor=default;endArrow=none;endFill=0;" edge="1" parent="1" source="Hx_Fb0d7paaMFf6icbwY-6">
          <mxGeometry relative="1" as="geometry">
            <mxPoint x="1420" y="360" as="targetPoint" />
            <Array as="points">
              <mxPoint x="1560" y="360" />
            </Array>
          </mxGeometry>
        </mxCell>
        <mxCell id="Hx_Fb0d7paaMFf6icbwY-6" value="" style="pointerEvents=1;verticalLabelPosition=bottom;shadow=0;dashed=0;align=center;html=1;verticalAlign=top;shape=mxgraph.electrical.signal_sources.source;aspect=fixed;points=[[0.5,0,0],[1,0.5,0],[0.5,1,0],[0,0.5,0]];elSignalType=dc2;direction=east;flipH=1;flipV=0;" parent="1" vertex="1">
          <mxGeometry x="1530" y="411" width="60" height="60" as="geometry" />
        </mxCell>
        <mxCell id="5XcIdOqlf6TmVMvbWogk-46" style="edgeStyle=orthogonalEdgeStyle;shape=connector;rounded=0;orthogonalLoop=1;jettySize=auto;html=1;exitX=1;exitY=0.5;exitDx=0;exitDy=0;labelBackgroundColor=default;strokeColor=default;fontFamily=Helvetica;fontSize=11;fontColor=default;endArrow=classic;endFill=1;" parent="1" edge="1">
          <mxGeometry relative="1" as="geometry">
            <mxPoint x="251" y="420.00000000000045" as="targetPoint" />
            <Array as="points">
              <mxPoint x="201" y="360.00000000000045" />
              <mxPoint x="201" y="420.00000000000045" />
            </Array>
            <mxPoint x="164.99999999998" y="360.00000000000045" as="sourcePoint" />
          </mxGeometry>
        </mxCell>
        <mxCell id="JKdnkWJyfVDF3cyXRBnW-14" style="edgeStyle=orthogonalEdgeStyle;shape=connector;rounded=0;orthogonalLoop=1;jettySize=auto;html=1;exitX=1;exitY=0.5;exitDx=0;exitDy=0;labelBackgroundColor=default;strokeColor=default;fontFamily=Helvetica;fontSize=11;fontColor=default;endArrow=none;endFill=0;" parent="1" source="Hx_Fb0d7paaMFf6icbwY-7" edge="1">
          <mxGeometry relative="1" as="geometry">
            <mxPoint x="281" y="519.9540229885058" as="targetPoint" />
          </mxGeometry>
        </mxCell>
        <mxCell id="Hx_Fb0d7paaMFf6icbwY-7" value="" style="verticalLabelPosition=bottom;shadow=0;dashed=0;align=center;html=1;verticalAlign=top;strokeWidth=1;shape=ellipse;perimeter=ellipsePerimeter;aspect=fixed;" parent="1" vertex="1">
          <mxGeometry x="157" y="516" width="8" height="8" as="geometry" />
        </mxCell>
        <mxCell id="Hx_Fb0d7paaMFf6icbwY-8" value="" style="verticalLabelPosition=bottom;shadow=0;dashed=0;align=center;html=1;verticalAlign=top;strokeWidth=1;shape=ellipse;perimeter=ellipsePerimeter;aspect=fixed;" parent="1" vertex="1">
          <mxGeometry x="1676" y="357" width="8" height="8" as="geometry" />
        </mxCell>
        <mxCell id="JKdnkWJyfVDF3cyXRBnW-13" style="edgeStyle=orthogonalEdgeStyle;shape=connector;rounded=0;orthogonalLoop=1;jettySize=auto;html=1;exitX=0;exitY=0.5;exitDx=0;exitDy=0;labelBackgroundColor=default;strokeColor=default;fontFamily=Helvetica;fontSize=11;fontColor=default;endArrow=none;endFill=0;" parent="1" source="Hx_Fb0d7paaMFf6icbwY-9" edge="1">
          <mxGeometry relative="1" as="geometry">
            <mxPoint x="1560" y="521" as="targetPoint" />
          </mxGeometry>
        </mxCell>
        <mxCell id="Hx_Fb0d7paaMFf6icbwY-9" value="" style="verticalLabelPosition=bottom;shadow=0;dashed=0;align=center;html=1;verticalAlign=top;strokeWidth=1;shape=ellipse;perimeter=ellipsePerimeter;aspect=fixed;" parent="1" vertex="1">
          <mxGeometry x="1676" y="517" width="8" height="8" as="geometry" />
        </mxCell>
        <mxCell id="Hx_Fb0d7paaMFf6icbwY-39" value="&lt;font style=&quot;font-size: 24px;&quot;&gt;`-v_{i n}`&lt;/font&gt;" style="text;html=1;align=center;verticalAlign=middle;resizable=0;points=[];autosize=1;strokeColor=none;fillColor=none;fontSize=11;fontFamily=Helvetica;fontColor=default;" parent="1" vertex="1">
          <mxGeometry x="1630" y="421" width="110" height="40" as="geometry" />
        </mxCell>
        <mxCell id="Hx_Fb0d7paaMFf6icbwY-47" style="edgeStyle=orthogonalEdgeStyle;shape=connector;rounded=0;orthogonalLoop=1;jettySize=auto;html=1;exitX=0;exitY=0.5;exitDx=0;exitDy=0;exitPerimeter=0;entryX=0.5;entryY=0;entryDx=0;entryDy=0;entryPerimeter=0;labelBackgroundColor=default;strokeColor=default;fontFamily=Helvetica;fontSize=11;fontColor=default;endArrow=none;endFill=0;" parent="1" source="Hx_Fb0d7paaMFf6icbwY-48" target="Hx_Fb0d7paaMFf6icbwY-50" edge="1">
          <mxGeometry relative="1" as="geometry">
            <Array as="points">
              <mxPoint x="640" y="360" />
              <mxPoint x="560" y="360" />
            </Array>
          </mxGeometry>
        </mxCell>
        <mxCell id="Hx_Fb0d7paaMFf6icbwY-74" style="edgeStyle=orthogonalEdgeStyle;shape=connector;rounded=0;orthogonalLoop=1;jettySize=auto;html=1;exitX=1;exitY=0.5;exitDx=0;exitDy=0;exitPerimeter=0;entryX=0.5;entryY=1;entryDx=0;entryDy=0;entryPerimeter=0;labelBackgroundColor=default;strokeColor=default;fontFamily=Helvetica;fontSize=24;fontColor=default;endArrow=none;endFill=0;" parent="1" source="Hx_Fb0d7paaMFf6icbwY-48" target="Hx_Fb0d7paaMFf6icbwY-50" edge="1">
          <mxGeometry x="0.0581" y="-6" relative="1" as="geometry">
            <Array as="points">
              <mxPoint x="640" y="520" />
              <mxPoint x="560" y="520" />
            </Array>
            <mxPoint as="offset" />
          </mxGeometry>
        </mxCell>
        <mxCell id="Hx_Fb0d7paaMFf6icbwY-48" value="" style="pointerEvents=1;verticalLabelPosition=bottom;shadow=0;dashed=0;align=center;html=1;verticalAlign=top;shape=mxgraph.electrical.resistors.resistor_1;direction=south;" parent="1" vertex="1">
          <mxGeometry x="630" y="390" width="20" height="100" as="geometry" />
        </mxCell>
        <mxCell id="Hx_Fb0d7paaMFf6icbwY-50" value="" style="pointerEvents=1;verticalLabelPosition=bottom;shadow=0;dashed=0;align=center;html=1;verticalAlign=top;shape=mxgraph.electrical.signal_sources.source;aspect=fixed;points=[[0.5,0,0],[1,0.5,0],[0.5,1,0],[0,0.5,0]];elSignalType=dc2;" parent="1" vertex="1">
          <mxGeometry x="530" y="410" width="60" height="60" as="geometry" />
        </mxCell>
        <mxCell id="Hx_Fb0d7paaMFf6icbwY-76" style="edgeStyle=orthogonalEdgeStyle;shape=connector;rounded=0;orthogonalLoop=1;jettySize=auto;html=1;exitX=1;exitY=0.5;exitDx=0;exitDy=0;entryX=0;entryY=0.5;entryDx=0;entryDy=0;labelBackgroundColor=default;strokeColor=default;fontFamily=Helvetica;fontSize=24;fontColor=default;endArrow=none;endFill=0;" parent="1" source="Hx_Fb0d7paaMFf6icbwY-52" target="Hx_Fb0d7paaMFf6icbwY-61" edge="1">
          <mxGeometry relative="1" as="geometry" />
        </mxCell>
        <mxCell id="Hx_Fb0d7paaMFf6icbwY-52" value="" style="verticalLabelPosition=bottom;shadow=0;dashed=0;align=center;html=1;verticalAlign=top;strokeWidth=1;shape=ellipse;perimeter=ellipsePerimeter;aspect=fixed;" parent="1" vertex="1">
          <mxGeometry x="476" y="356" width="8" height="8" as="geometry" />
        </mxCell>
        <mxCell id="Hx_Fb0d7paaMFf6icbwY-54" style="edgeStyle=orthogonalEdgeStyle;shape=connector;rounded=0;orthogonalLoop=1;jettySize=auto;html=1;exitX=0;exitY=0.5;exitDx=0;exitDy=0;exitPerimeter=0;entryX=0.5;entryY=0;entryDx=0;entryDy=0;entryPerimeter=0;labelBackgroundColor=default;strokeColor=default;fontFamily=Helvetica;fontSize=11;fontColor=default;endArrow=none;endFill=0;" parent="1" source="Hx_Fb0d7paaMFf6icbwY-55" target="Hx_Fb0d7paaMFf6icbwY-57" edge="1">
          <mxGeometry y="10" relative="1" as="geometry">
            <Array as="points">
              <mxPoint x="720" y="360" />
              <mxPoint x="800" y="360" />
            </Array>
            <mxPoint as="offset" />
          </mxGeometry>
        </mxCell>
        <mxCell id="Hx_Fb0d7paaMFf6icbwY-75" style="edgeStyle=orthogonalEdgeStyle;shape=connector;rounded=0;orthogonalLoop=1;jettySize=auto;html=1;exitX=1;exitY=0.5;exitDx=0;exitDy=0;exitPerimeter=0;entryX=0.5;entryY=1;entryDx=0;entryDy=0;entryPerimeter=0;labelBackgroundColor=default;strokeColor=default;fontFamily=Helvetica;fontSize=24;fontColor=default;endArrow=none;endFill=0;" parent="1" source="Hx_Fb0d7paaMFf6icbwY-55" target="Hx_Fb0d7paaMFf6icbwY-57" edge="1">
          <mxGeometry relative="1" as="geometry">
            <Array as="points">
              <mxPoint x="720" y="520" />
              <mxPoint x="800" y="520" />
            </Array>
          </mxGeometry>
        </mxCell>
        <mxCell id="Hx_Fb0d7paaMFf6icbwY-55" value="" style="pointerEvents=1;verticalLabelPosition=bottom;shadow=0;dashed=0;align=center;html=1;verticalAlign=top;shape=mxgraph.electrical.resistors.resistor_1;direction=south;flipH=1;" parent="1" vertex="1">
          <mxGeometry x="710" y="390" width="20" height="100" as="geometry" />
        </mxCell>
        <mxCell id="Hx_Fb0d7paaMFf6icbwY-57" value="" style="pointerEvents=1;verticalLabelPosition=bottom;shadow=0;dashed=0;align=center;html=1;verticalAlign=top;shape=mxgraph.electrical.signal_sources.source;aspect=fixed;points=[[0.5,0,0],[1,0.5,0],[0.5,1,0],[0,0.5,0]];elSignalType=dc2;direction=east;flipH=1;" parent="1" vertex="1">
          <mxGeometry x="770" y="410" width="60" height="60" as="geometry" />
        </mxCell>
        <mxCell id="Hx_Fb0d7paaMFf6icbwY-82" style="edgeStyle=orthogonalEdgeStyle;shape=connector;rounded=0;orthogonalLoop=1;jettySize=auto;html=1;exitX=1;exitY=0.5;exitDx=0;exitDy=0;labelBackgroundColor=default;strokeColor=default;fontFamily=Helvetica;fontSize=24;fontColor=default;endArrow=classic;endFill=1;entryX=0;entryY=0.667;entryDx=0;entryDy=0;entryPerimeter=0;" parent="1" source="Hx_Fb0d7paaMFf6icbwY-59" target="Hx_Fb0d7paaMFf6icbwY-50" edge="1">
          <mxGeometry relative="1" as="geometry">
            <mxPoint x="525" y="450" as="targetPoint" />
            <Array as="points">
              <mxPoint x="510" y="520" />
              <mxPoint x="510" y="450" />
            </Array>
          </mxGeometry>
        </mxCell>
        <mxCell id="Hx_Fb0d7paaMFf6icbwY-59" value="" style="verticalLabelPosition=bottom;shadow=0;dashed=0;align=center;html=1;verticalAlign=top;strokeWidth=1;shape=ellipse;perimeter=ellipsePerimeter;aspect=fixed;" parent="1" vertex="1">
          <mxGeometry x="476" y="516" width="8" height="8" as="geometry" />
        </mxCell>
        <mxCell id="Hx_Fb0d7paaMFf6icbwY-61" value="" style="verticalLabelPosition=bottom;shadow=0;dashed=0;align=center;html=1;verticalAlign=top;strokeWidth=1;shape=ellipse;perimeter=ellipsePerimeter;aspect=fixed;" parent="1" vertex="1">
          <mxGeometry x="876" y="356" width="8" height="8" as="geometry" />
        </mxCell>
        <mxCell id="Hx_Fb0d7paaMFf6icbwY-83" style="edgeStyle=orthogonalEdgeStyle;shape=connector;rounded=0;orthogonalLoop=1;jettySize=auto;html=1;exitX=0;exitY=0.5;exitDx=0;exitDy=0;entryX=0;entryY=0.667;entryDx=0;entryDy=0;entryPerimeter=0;labelBackgroundColor=default;strokeColor=default;fontFamily=Helvetica;fontSize=24;fontColor=default;endArrow=classic;endFill=1;" parent="1" source="Hx_Fb0d7paaMFf6icbwY-62" target="Hx_Fb0d7paaMFf6icbwY-57" edge="1">
          <mxGeometry relative="1" as="geometry">
            <Array as="points">
              <mxPoint x="850" y="520" />
              <mxPoint x="850" y="450" />
            </Array>
          </mxGeometry>
        </mxCell>
        <mxCell id="Hx_Fb0d7paaMFf6icbwY-121" style="edgeStyle=orthogonalEdgeStyle;shape=connector;rounded=0;orthogonalLoop=1;jettySize=auto;html=1;exitX=1;exitY=0.5;exitDx=0;exitDy=0;entryX=0;entryY=0.5;entryDx=0;entryDy=0;labelBackgroundColor=default;strokeColor=default;fontFamily=Helvetica;fontSize=24;fontColor=default;endArrow=none;endFill=0;" parent="1" source="Hx_Fb0d7paaMFf6icbwY-62" target="Hx_Fb0d7paaMFf6icbwY-101" edge="1">
          <mxGeometry relative="1" as="geometry" />
        </mxCell>
        <mxCell id="Hx_Fb0d7paaMFf6icbwY-62" value="" style="verticalLabelPosition=bottom;shadow=0;dashed=0;align=center;html=1;verticalAlign=top;strokeWidth=1;shape=ellipse;perimeter=ellipsePerimeter;aspect=fixed;" parent="1" vertex="1">
          <mxGeometry x="876" y="516" width="8" height="8" as="geometry" />
        </mxCell>
        <mxCell id="Hx_Fb0d7paaMFf6icbwY-67" value="" style="endArrow=classic;html=1;rounded=0;labelBackgroundColor=default;strokeColor=default;fontFamily=Helvetica;fontSize=11;fontColor=default;shape=connector;" parent="1" edge="1">
          <mxGeometry x="-1" y="-4" width="50" height="50" relative="1" as="geometry">
            <mxPoint x="480" y="420" as="sourcePoint" />
            <mxPoint x="480" y="370" as="targetPoint" />
            <mxPoint as="offset" />
          </mxGeometry>
        </mxCell>
        <mxCell id="Hx_Fb0d7paaMFf6icbwY-68" value="" style="endArrow=none;html=1;rounded=0;labelBackgroundColor=default;strokeColor=default;fontFamily=Helvetica;fontSize=11;fontColor=default;shape=connector;" parent="1" edge="1">
          <mxGeometry width="50" height="50" relative="1" as="geometry">
            <mxPoint x="480" y="510" as="sourcePoint" />
            <mxPoint x="480" y="460" as="targetPoint" />
          </mxGeometry>
        </mxCell>
        <mxCell id="Hx_Fb0d7paaMFf6icbwY-70" value="" style="endArrow=classic;html=1;rounded=0;labelBackgroundColor=default;strokeColor=default;fontFamily=Helvetica;fontSize=11;fontColor=default;shape=connector;" parent="1" edge="1">
          <mxGeometry x="-1" y="-4" width="50" height="50" relative="1" as="geometry">
            <mxPoint x="879.76" y="420" as="sourcePoint" />
            <mxPoint x="879.76" y="370" as="targetPoint" />
            <mxPoint as="offset" />
          </mxGeometry>
        </mxCell>
        <mxCell id="Hx_Fb0d7paaMFf6icbwY-71" value="" style="endArrow=none;html=1;rounded=0;labelBackgroundColor=default;strokeColor=default;fontFamily=Helvetica;fontSize=11;fontColor=default;shape=connector;" parent="1" edge="1">
          <mxGeometry width="50" height="50" relative="1" as="geometry">
            <mxPoint x="879.76" y="510" as="sourcePoint" />
            <mxPoint x="879.76" y="460" as="targetPoint" />
          </mxGeometry>
        </mxCell>
        <mxCell id="Hx_Fb0d7paaMFf6icbwY-77" value="" style="shape=waypoint;sketch=0;fillStyle=solid;size=6;pointerEvents=1;points=[];fillColor=none;resizable=0;rotatable=0;perimeter=centerPerimeter;snapToPoint=1;fontFamily=Helvetica;fontSize=11;fontColor=default;" parent="1" vertex="1">
          <mxGeometry x="540" y="340" width="40" height="40" as="geometry" />
        </mxCell>
        <mxCell id="Hx_Fb0d7paaMFf6icbwY-78" value="" style="shape=waypoint;sketch=0;fillStyle=solid;size=6;pointerEvents=1;points=[];fillColor=none;resizable=0;rotatable=0;perimeter=centerPerimeter;snapToPoint=1;fontFamily=Helvetica;fontSize=11;fontColor=default;" parent="1" vertex="1">
          <mxGeometry x="620" y="340" width="40" height="40" as="geometry" />
        </mxCell>
        <mxCell id="Hx_Fb0d7paaMFf6icbwY-79" value="" style="shape=waypoint;sketch=0;fillStyle=solid;size=6;pointerEvents=1;points=[];fillColor=none;resizable=0;rotatable=0;perimeter=centerPerimeter;snapToPoint=1;fontFamily=Helvetica;fontSize=11;fontColor=default;" parent="1" vertex="1">
          <mxGeometry x="700" y="340" width="40" height="40" as="geometry" />
        </mxCell>
        <mxCell id="Hx_Fb0d7paaMFf6icbwY-80" value="" style="shape=waypoint;sketch=0;fillStyle=solid;size=6;pointerEvents=1;points=[];fillColor=none;resizable=0;rotatable=0;perimeter=centerPerimeter;snapToPoint=1;fontFamily=Helvetica;fontSize=11;fontColor=default;" parent="1" vertex="1">
          <mxGeometry x="780" y="340" width="40" height="40" as="geometry" />
        </mxCell>
        <mxCell id="Hx_Fb0d7paaMFf6icbwY-84" value="&lt;font style=&quot;font-size: 24px;&quot;&gt;`v_{p1}`&lt;/font&gt;" style="text;html=1;align=center;verticalAlign=middle;resizable=0;points=[];autosize=1;strokeColor=none;fillColor=none;fontSize=11;fontFamily=Helvetica;fontColor=default;" parent="1" vertex="1">
          <mxGeometry x="425" y="420" width="110" height="40" as="geometry" />
        </mxCell>
        <mxCell id="Hx_Fb0d7paaMFf6icbwY-85" value="&lt;font style=&quot;font-size: 24px;&quot;&gt;`v_{p2}`&lt;/font&gt;" style="text;html=1;align=center;verticalAlign=middle;resizable=0;points=[];autosize=1;strokeColor=none;fillColor=none;fontSize=11;fontFamily=Helvetica;fontColor=default;" parent="1" vertex="1">
          <mxGeometry x="825" y="420" width="110" height="40" as="geometry" />
        </mxCell>
        <mxCell id="Hx_Fb0d7paaMFf6icbwY-86" value="&lt;font style=&quot;font-size: 24px;&quot;&gt;`g_{m p}v_{p1}`&lt;/font&gt;" style="text;html=1;align=center;verticalAlign=middle;resizable=0;points=[];autosize=1;strokeColor=none;fillColor=none;fontSize=11;fontFamily=Helvetica;fontColor=default;" parent="1" vertex="1">
          <mxGeometry x="425" y="370" width="190" height="40" as="geometry" />
        </mxCell>
        <mxCell id="Hx_Fb0d7paaMFf6icbwY-88" value="&lt;font style=&quot;font-size: 24px;&quot;&gt;`g_{m p}v_{p2}`&lt;/font&gt;" style="text;html=1;align=center;verticalAlign=middle;resizable=0;points=[];autosize=1;strokeColor=none;fillColor=none;fontSize=11;fontFamily=Helvetica;fontColor=default;" parent="1" vertex="1">
          <mxGeometry x="740" y="370" width="190" height="40" as="geometry" />
        </mxCell>
        <mxCell id="Hx_Fb0d7paaMFf6icbwY-89" value="&lt;font style=&quot;font-size: 24px;&quot;&gt;`g_{dp}`&lt;/font&gt;" style="text;html=1;align=center;verticalAlign=middle;resizable=0;points=[];autosize=1;strokeColor=none;fillColor=none;fontSize=11;fontFamily=Helvetica;fontColor=default;" parent="1" vertex="1">
          <mxGeometry x="625" y="420" width="110" height="40" as="geometry" />
        </mxCell>
        <mxCell id="Hx_Fb0d7paaMFf6icbwY-90" style="edgeStyle=orthogonalEdgeStyle;shape=connector;rounded=0;orthogonalLoop=1;jettySize=auto;html=1;exitX=0;exitY=0.5;exitDx=0;exitDy=0;exitPerimeter=0;entryX=0.5;entryY=0;entryDx=0;entryDy=0;entryPerimeter=0;labelBackgroundColor=default;strokeColor=default;fontFamily=Helvetica;fontSize=11;fontColor=default;endArrow=none;endFill=0;" parent="1" source="Hx_Fb0d7paaMFf6icbwY-92" target="Hx_Fb0d7paaMFf6icbwY-93" edge="1">
          <mxGeometry relative="1" as="geometry">
            <Array as="points">
              <mxPoint x="1120" y="360" />
              <mxPoint x="1040" y="360" />
            </Array>
          </mxGeometry>
        </mxCell>
        <mxCell id="Hx_Fb0d7paaMFf6icbwY-91" style="edgeStyle=orthogonalEdgeStyle;shape=connector;rounded=0;orthogonalLoop=1;jettySize=auto;html=1;exitX=1;exitY=0.5;exitDx=0;exitDy=0;exitPerimeter=0;entryX=0.5;entryY=1;entryDx=0;entryDy=0;entryPerimeter=0;labelBackgroundColor=default;strokeColor=default;fontFamily=Helvetica;fontSize=24;fontColor=default;endArrow=none;endFill=0;" parent="1" source="Hx_Fb0d7paaMFf6icbwY-92" target="Hx_Fb0d7paaMFf6icbwY-93" edge="1">
          <mxGeometry x="0.0581" y="-6" relative="1" as="geometry">
            <Array as="points">
              <mxPoint x="1120" y="520" />
              <mxPoint x="1040" y="520" />
            </Array>
            <mxPoint as="offset" />
          </mxGeometry>
        </mxCell>
        <mxCell id="Hx_Fb0d7paaMFf6icbwY-92" value="" style="pointerEvents=1;verticalLabelPosition=bottom;shadow=0;dashed=0;align=center;html=1;verticalAlign=top;shape=mxgraph.electrical.resistors.resistor_1;direction=south;" parent="1" vertex="1">
          <mxGeometry x="1110" y="390" width="20" height="100" as="geometry" />
        </mxCell>
        <mxCell id="Hx_Fb0d7paaMFf6icbwY-93" value="" style="pointerEvents=1;verticalLabelPosition=bottom;shadow=0;dashed=0;align=center;html=1;verticalAlign=top;shape=mxgraph.electrical.signal_sources.source;aspect=fixed;points=[[0.5,0,0],[1,0.5,0],[0.5,1,0],[0,0.5,0]];elSignalType=dc2;" parent="1" vertex="1">
          <mxGeometry x="1010" y="410" width="60" height="60" as="geometry" />
        </mxCell>
        <mxCell id="Hx_Fb0d7paaMFf6icbwY-94" style="edgeStyle=orthogonalEdgeStyle;shape=connector;rounded=0;orthogonalLoop=1;jettySize=auto;html=1;exitX=1;exitY=0.5;exitDx=0;exitDy=0;entryX=0;entryY=0.5;entryDx=0;entryDy=0;labelBackgroundColor=default;strokeColor=default;fontFamily=Helvetica;fontSize=24;fontColor=default;endArrow=none;endFill=0;" parent="1" source="Hx_Fb0d7paaMFf6icbwY-95" target="Hx_Fb0d7paaMFf6icbwY-102" edge="1">
          <mxGeometry relative="1" as="geometry" />
        </mxCell>
        <mxCell id="Hx_Fb0d7paaMFf6icbwY-95" value="" style="verticalLabelPosition=bottom;shadow=0;dashed=0;align=center;html=1;verticalAlign=top;strokeWidth=1;shape=ellipse;perimeter=ellipsePerimeter;aspect=fixed;" parent="1" vertex="1">
          <mxGeometry x="956" y="356" width="8" height="8" as="geometry" />
        </mxCell>
        <mxCell id="Hx_Fb0d7paaMFf6icbwY-96" style="edgeStyle=orthogonalEdgeStyle;shape=connector;rounded=0;orthogonalLoop=1;jettySize=auto;html=1;exitX=0;exitY=0.5;exitDx=0;exitDy=0;exitPerimeter=0;entryX=0.5;entryY=0;entryDx=0;entryDy=0;entryPerimeter=0;labelBackgroundColor=default;strokeColor=default;fontFamily=Helvetica;fontSize=11;fontColor=default;endArrow=none;endFill=0;" parent="1" source="Hx_Fb0d7paaMFf6icbwY-98" target="Hx_Fb0d7paaMFf6icbwY-99" edge="1">
          <mxGeometry y="10" relative="1" as="geometry">
            <Array as="points">
              <mxPoint x="1200" y="360" />
              <mxPoint x="1280" y="360" />
            </Array>
            <mxPoint as="offset" />
          </mxGeometry>
        </mxCell>
        <mxCell id="Hx_Fb0d7paaMFf6icbwY-97" style="edgeStyle=orthogonalEdgeStyle;shape=connector;rounded=0;orthogonalLoop=1;jettySize=auto;html=1;exitX=1;exitY=0.5;exitDx=0;exitDy=0;exitPerimeter=0;entryX=0.5;entryY=1;entryDx=0;entryDy=0;entryPerimeter=0;labelBackgroundColor=default;strokeColor=default;fontFamily=Helvetica;fontSize=24;fontColor=default;endArrow=none;endFill=0;" parent="1" source="Hx_Fb0d7paaMFf6icbwY-98" target="Hx_Fb0d7paaMFf6icbwY-99" edge="1">
          <mxGeometry relative="1" as="geometry">
            <Array as="points">
              <mxPoint x="1200" y="520" />
              <mxPoint x="1280" y="520" />
            </Array>
          </mxGeometry>
        </mxCell>
        <mxCell id="Hx_Fb0d7paaMFf6icbwY-98" value="" style="pointerEvents=1;verticalLabelPosition=bottom;shadow=0;dashed=0;align=center;html=1;verticalAlign=top;shape=mxgraph.electrical.resistors.resistor_1;direction=south;flipH=1;" parent="1" vertex="1">
          <mxGeometry x="1190" y="390" width="20" height="100" as="geometry" />
        </mxCell>
        <mxCell id="Hx_Fb0d7paaMFf6icbwY-99" value="" style="pointerEvents=1;verticalLabelPosition=bottom;shadow=0;dashed=0;align=center;html=1;verticalAlign=top;shape=mxgraph.electrical.signal_sources.source;aspect=fixed;points=[[0.5,0,0],[1,0.5,0],[0.5,1,0],[0,0.5,0]];elSignalType=dc2;direction=east;flipH=1;" parent="1" vertex="1">
          <mxGeometry x="1250" y="410" width="60" height="60" as="geometry" />
        </mxCell>
        <mxCell id="Hx_Fb0d7paaMFf6icbwY-100" style="edgeStyle=orthogonalEdgeStyle;shape=connector;rounded=0;orthogonalLoop=1;jettySize=auto;html=1;exitX=1;exitY=0.5;exitDx=0;exitDy=0;labelBackgroundColor=default;strokeColor=default;fontFamily=Helvetica;fontSize=24;fontColor=default;endArrow=classic;endFill=1;entryX=0;entryY=0.667;entryDx=0;entryDy=0;entryPerimeter=0;" parent="1" source="Hx_Fb0d7paaMFf6icbwY-101" target="Hx_Fb0d7paaMFf6icbwY-93" edge="1">
          <mxGeometry relative="1" as="geometry">
            <mxPoint x="1005" y="450" as="targetPoint" />
            <Array as="points">
              <mxPoint x="990" y="520" />
              <mxPoint x="990" y="450" />
            </Array>
          </mxGeometry>
        </mxCell>
        <mxCell id="Hx_Fb0d7paaMFf6icbwY-101" value="" style="verticalLabelPosition=bottom;shadow=0;dashed=0;align=center;html=1;verticalAlign=top;strokeWidth=1;shape=ellipse;perimeter=ellipsePerimeter;aspect=fixed;" parent="1" vertex="1">
          <mxGeometry x="956" y="516" width="8" height="8" as="geometry" />
        </mxCell>
        <mxCell id="Hx_Fb0d7paaMFf6icbwY-102" value="" style="verticalLabelPosition=bottom;shadow=0;dashed=0;align=center;html=1;verticalAlign=top;strokeWidth=1;shape=ellipse;perimeter=ellipsePerimeter;aspect=fixed;" parent="1" vertex="1">
          <mxGeometry x="1356" y="356" width="8" height="8" as="geometry" />
        </mxCell>
        <mxCell id="Hx_Fb0d7paaMFf6icbwY-103" style="edgeStyle=orthogonalEdgeStyle;shape=connector;rounded=0;orthogonalLoop=1;jettySize=auto;html=1;exitX=0;exitY=0.5;exitDx=0;exitDy=0;entryX=0;entryY=0.667;entryDx=0;entryDy=0;entryPerimeter=0;labelBackgroundColor=default;strokeColor=default;fontFamily=Helvetica;fontSize=24;fontColor=default;endArrow=classic;endFill=1;" parent="1" source="Hx_Fb0d7paaMFf6icbwY-104" target="Hx_Fb0d7paaMFf6icbwY-99" edge="1">
          <mxGeometry relative="1" as="geometry">
            <Array as="points">
              <mxPoint x="1330" y="520" />
              <mxPoint x="1330" y="450" />
            </Array>
          </mxGeometry>
        </mxCell>
        <mxCell id="Hx_Fb0d7paaMFf6icbwY-104" value="" style="verticalLabelPosition=bottom;shadow=0;dashed=0;align=center;html=1;verticalAlign=top;strokeWidth=1;shape=ellipse;perimeter=ellipsePerimeter;aspect=fixed;" parent="1" vertex="1">
          <mxGeometry x="1356" y="516" width="8" height="8" as="geometry" />
        </mxCell>
        <mxCell id="Hx_Fb0d7paaMFf6icbwY-105" value="" style="endArrow=classic;html=1;rounded=0;labelBackgroundColor=default;strokeColor=default;fontFamily=Helvetica;fontSize=11;fontColor=default;shape=connector;" parent="1" edge="1">
          <mxGeometry x="-1" y="-4" width="50" height="50" relative="1" as="geometry">
            <mxPoint x="960.0000000000002" y="420" as="sourcePoint" />
            <mxPoint x="960.0000000000002" y="370" as="targetPoint" />
            <mxPoint as="offset" />
          </mxGeometry>
        </mxCell>
        <mxCell id="Hx_Fb0d7paaMFf6icbwY-106" value="" style="endArrow=none;html=1;rounded=0;labelBackgroundColor=default;strokeColor=default;fontFamily=Helvetica;fontSize=11;fontColor=default;shape=connector;" parent="1" edge="1">
          <mxGeometry width="50" height="50" relative="1" as="geometry">
            <mxPoint x="960.0000000000002" y="510" as="sourcePoint" />
            <mxPoint x="960.0000000000002" y="460" as="targetPoint" />
          </mxGeometry>
        </mxCell>
        <mxCell id="Hx_Fb0d7paaMFf6icbwY-107" value="" style="endArrow=classic;html=1;rounded=0;labelBackgroundColor=default;strokeColor=default;fontFamily=Helvetica;fontSize=11;fontColor=default;shape=connector;" parent="1" edge="1">
          <mxGeometry x="-1" y="-4" width="50" height="50" relative="1" as="geometry">
            <mxPoint x="1359.7600000000002" y="420" as="sourcePoint" />
            <mxPoint x="1359.7600000000002" y="370" as="targetPoint" />
            <mxPoint as="offset" />
          </mxGeometry>
        </mxCell>
        <mxCell id="Hx_Fb0d7paaMFf6icbwY-108" value="" style="endArrow=none;html=1;rounded=0;labelBackgroundColor=default;strokeColor=default;fontFamily=Helvetica;fontSize=11;fontColor=default;shape=connector;" parent="1" edge="1">
          <mxGeometry width="50" height="50" relative="1" as="geometry">
            <mxPoint x="1359.7600000000002" y="510" as="sourcePoint" />
            <mxPoint x="1359.7600000000002" y="460" as="targetPoint" />
          </mxGeometry>
        </mxCell>
        <mxCell id="Hx_Fb0d7paaMFf6icbwY-109" value="" style="shape=waypoint;sketch=0;fillStyle=solid;size=6;pointerEvents=1;points=[];fillColor=none;resizable=0;rotatable=0;perimeter=centerPerimeter;snapToPoint=1;fontFamily=Helvetica;fontSize=11;fontColor=default;" parent="1" vertex="1">
          <mxGeometry x="1020" y="340" width="40" height="40" as="geometry" />
        </mxCell>
        <mxCell id="Hx_Fb0d7paaMFf6icbwY-110" value="" style="shape=waypoint;sketch=0;fillStyle=solid;size=6;pointerEvents=1;points=[];fillColor=none;resizable=0;rotatable=0;perimeter=centerPerimeter;snapToPoint=1;fontFamily=Helvetica;fontSize=11;fontColor=default;" parent="1" vertex="1">
          <mxGeometry x="1100" y="340" width="40" height="40" as="geometry" />
        </mxCell>
        <mxCell id="Hx_Fb0d7paaMFf6icbwY-111" value="" style="shape=waypoint;sketch=0;fillStyle=solid;size=6;pointerEvents=1;points=[];fillColor=none;resizable=0;rotatable=0;perimeter=centerPerimeter;snapToPoint=1;fontFamily=Helvetica;fontSize=11;fontColor=default;" parent="1" vertex="1">
          <mxGeometry x="1180" y="340" width="40" height="40" as="geometry" />
        </mxCell>
        <mxCell id="Hx_Fb0d7paaMFf6icbwY-112" value="" style="shape=waypoint;sketch=0;fillStyle=solid;size=6;pointerEvents=1;points=[];fillColor=none;resizable=0;rotatable=0;perimeter=centerPerimeter;snapToPoint=1;fontFamily=Helvetica;fontSize=11;fontColor=default;" parent="1" vertex="1">
          <mxGeometry x="1260" y="340" width="40" height="40" as="geometry" />
        </mxCell>
        <mxCell id="Hx_Fb0d7paaMFf6icbwY-113" value="&lt;font style=&quot;font-size: 24px;&quot;&gt;`v_{p3}`&lt;/font&gt;" style="text;html=1;align=center;verticalAlign=middle;resizable=0;points=[];autosize=1;strokeColor=none;fillColor=none;fontSize=11;fontFamily=Helvetica;fontColor=default;" parent="1" vertex="1">
          <mxGeometry x="905" y="420" width="110" height="40" as="geometry" />
        </mxCell>
        <mxCell id="Hx_Fb0d7paaMFf6icbwY-114" value="&lt;font style=&quot;font-size: 24px;&quot;&gt;`v_{p4}`&lt;/font&gt;" style="text;html=1;align=center;verticalAlign=middle;resizable=0;points=[];autosize=1;strokeColor=none;fillColor=none;fontSize=11;fontFamily=Helvetica;fontColor=default;" parent="1" vertex="1">
          <mxGeometry x="1305" y="420" width="110" height="40" as="geometry" />
        </mxCell>
        <mxCell id="Hx_Fb0d7paaMFf6icbwY-115" value="&lt;font style=&quot;font-size: 24px;&quot;&gt;`g_{m p}v_{p3}`&lt;/font&gt;" style="text;html=1;align=center;verticalAlign=middle;resizable=0;points=[];autosize=1;strokeColor=none;fillColor=none;fontSize=11;fontFamily=Helvetica;fontColor=default;" parent="1" vertex="1">
          <mxGeometry x="905" y="370" width="190" height="40" as="geometry" />
        </mxCell>
        <mxCell id="Hx_Fb0d7paaMFf6icbwY-116" value="&lt;font style=&quot;font-size: 24px;&quot;&gt;`g_{m p}v_{p4}`&lt;/font&gt;" style="text;html=1;align=center;verticalAlign=middle;resizable=0;points=[];autosize=1;strokeColor=none;fillColor=none;fontSize=11;fontFamily=Helvetica;fontColor=default;" parent="1" vertex="1">
          <mxGeometry x="1220" y="370" width="190" height="40" as="geometry" />
        </mxCell>
        <mxCell id="Hx_Fb0d7paaMFf6icbwY-117" value="&lt;font style=&quot;font-size: 24px;&quot;&gt;`g_{dp}`&lt;/font&gt;" style="text;html=1;align=center;verticalAlign=middle;resizable=0;points=[];autosize=1;strokeColor=none;fillColor=none;fontSize=11;fontFamily=Helvetica;fontColor=default;" parent="1" vertex="1">
          <mxGeometry x="1105" y="420" width="110" height="40" as="geometry" />
        </mxCell>
        <mxCell id="Hx_Fb0d7paaMFf6icbwY-119" value="&lt;font style=&quot;font-size: 24px;&quot;&gt;`g_{dn}`&lt;/font&gt;" style="text;html=1;align=center;verticalAlign=middle;resizable=0;points=[];autosize=1;strokeColor=none;fillColor=none;fontSize=11;fontFamily=Helvetica;fontColor=default;" parent="1" vertex="1">
          <mxGeometry x="1450" y="461" width="110" height="40" as="geometry" />
        </mxCell>
        <mxCell id="Hx_Fb0d7paaMFf6icbwY-120" value="&lt;font style=&quot;font-size: 24px;&quot;&gt;`R_{L}`&lt;/font&gt;" style="text;html=1;align=center;verticalAlign=middle;resizable=0;points=[];autosize=1;strokeColor=none;fillColor=none;fontSize=11;fontFamily=Helvetica;fontColor=default;" parent="1" vertex="1">
          <mxGeometry x="590" y="660" width="100" height="40" as="geometry" />
        </mxCell>
        <mxCell id="Hx_Fb0d7paaMFf6icbwY-122" value="" style="endArrow=none;html=1;rounded=0;labelBackgroundColor=default;strokeColor=default;fontFamily=Helvetica;fontSize=24;fontColor=default;shape=connector;" parent="1" edge="1">
          <mxGeometry width="50" height="50" relative="1" as="geometry">
            <mxPoint x="1240" y="560" as="sourcePoint" />
            <mxPoint x="760" y="520" as="targetPoint" />
            <Array as="points">
              <mxPoint x="760" y="560" />
            </Array>
          </mxGeometry>
        </mxCell>
        <mxCell id="Hx_Fb0d7paaMFf6icbwY-123" value="" style="endArrow=none;html=1;rounded=0;labelBackgroundColor=default;strokeColor=default;fontFamily=Helvetica;fontSize=24;fontColor=default;shape=connector;" parent="1" edge="1">
          <mxGeometry width="50" height="50" relative="1" as="geometry">
            <mxPoint x="600" y="580" as="sourcePoint" />
            <mxPoint x="1080" y="520" as="targetPoint" />
            <Array as="points">
              <mxPoint x="1080" y="580" />
            </Array>
          </mxGeometry>
        </mxCell>
        <mxCell id="Hx_Fb0d7paaMFf6icbwY-126" style="edgeStyle=orthogonalEdgeStyle;shape=connector;rounded=0;orthogonalLoop=1;jettySize=auto;html=1;exitX=0;exitY=0.5;exitDx=0;exitDy=0;exitPerimeter=0;labelBackgroundColor=default;strokeColor=default;fontFamily=Helvetica;fontSize=24;fontColor=default;endArrow=none;endFill=0;" parent="1" source="Hx_Fb0d7paaMFf6icbwY-124" edge="1">
          <mxGeometry relative="1" as="geometry">
            <mxPoint x="600" y="520" as="targetPoint" />
          </mxGeometry>
        </mxCell>
        <mxCell id="Hx_Fb0d7paaMFf6icbwY-132" style="edgeStyle=orthogonalEdgeStyle;shape=connector;rounded=0;orthogonalLoop=1;jettySize=auto;html=1;exitX=1;exitY=0.5;exitDx=0;exitDy=0;exitPerimeter=0;entryX=0.5;entryY=0;entryDx=0;entryDy=0;entryPerimeter=0;labelBackgroundColor=default;strokeColor=default;fontFamily=Helvetica;fontSize=24;fontColor=default;endArrow=none;endFill=0;" parent="1" source="Hx_Fb0d7paaMFf6icbwY-124" target="Hx_Fb0d7paaMFf6icbwY-131" edge="1">
          <mxGeometry relative="1" as="geometry" />
        </mxCell>
        <mxCell id="Hx_Fb0d7paaMFf6icbwY-124" value="" style="pointerEvents=1;verticalLabelPosition=bottom;shadow=0;dashed=0;align=center;html=1;verticalAlign=top;shape=mxgraph.electrical.resistors.resistor_1;direction=south;fontFamily=Helvetica;fontSize=24;fontColor=default;" parent="1" vertex="1">
          <mxGeometry x="590" y="630" width="20" height="100" as="geometry" />
        </mxCell>
        <mxCell id="Hx_Fb0d7paaMFf6icbwY-127" style="edgeStyle=orthogonalEdgeStyle;shape=connector;rounded=0;orthogonalLoop=1;jettySize=auto;html=1;exitX=0;exitY=0.5;exitDx=0;exitDy=0;exitPerimeter=0;labelBackgroundColor=default;strokeColor=default;fontFamily=Helvetica;fontSize=24;fontColor=default;endArrow=none;endFill=0;" parent="1" source="Hx_Fb0d7paaMFf6icbwY-125" edge="1">
          <mxGeometry relative="1" as="geometry">
            <mxPoint x="1240" y="520" as="targetPoint" />
          </mxGeometry>
        </mxCell>
        <mxCell id="Hx_Fb0d7paaMFf6icbwY-125" value="" style="pointerEvents=1;verticalLabelPosition=bottom;shadow=0;dashed=0;align=center;html=1;verticalAlign=top;shape=mxgraph.electrical.resistors.resistor_1;direction=south;fontFamily=Helvetica;fontSize=24;fontColor=default;" parent="1" vertex="1">
          <mxGeometry x="1230" y="630" width="20" height="100" as="geometry" />
        </mxCell>
        <mxCell id="Hx_Fb0d7paaMFf6icbwY-130" style="edgeStyle=orthogonalEdgeStyle;shape=connector;rounded=0;orthogonalLoop=1;jettySize=auto;html=1;exitX=0.5;exitY=0;exitDx=0;exitDy=0;exitPerimeter=0;entryX=1;entryY=0.5;entryDx=0;entryDy=0;entryPerimeter=0;labelBackgroundColor=default;strokeColor=default;fontFamily=Helvetica;fontSize=24;fontColor=default;endArrow=none;endFill=0;" parent="1" source="Hx_Fb0d7paaMFf6icbwY-129" target="Hx_Fb0d7paaMFf6icbwY-125" edge="1">
          <mxGeometry relative="1" as="geometry" />
        </mxCell>
        <mxCell id="Hx_Fb0d7paaMFf6icbwY-129" value="" style="pointerEvents=1;verticalLabelPosition=bottom;shadow=0;dashed=0;align=center;html=1;verticalAlign=top;shape=mxgraph.electrical.signal_sources.signal_ground;fontFamily=Helvetica;fontSize=24;fontColor=default;" parent="1" vertex="1">
          <mxGeometry x="1217.5" y="750" width="45" height="30" as="geometry" />
        </mxCell>
        <mxCell id="Hx_Fb0d7paaMFf6icbwY-131" value="" style="pointerEvents=1;verticalLabelPosition=bottom;shadow=0;dashed=0;align=center;html=1;verticalAlign=top;shape=mxgraph.electrical.signal_sources.signal_ground;fontFamily=Helvetica;fontSize=24;fontColor=default;" parent="1" vertex="1">
          <mxGeometry x="577.5" y="750" width="45" height="30" as="geometry" />
        </mxCell>
        <mxCell id="Hx_Fb0d7paaMFf6icbwY-136" style="edgeStyle=orthogonalEdgeStyle;shape=connector;rounded=0;orthogonalLoop=1;jettySize=auto;html=1;exitX=0;exitY=0.5;exitDx=0;exitDy=0;labelBackgroundColor=default;strokeColor=default;fontFamily=Helvetica;fontSize=24;fontColor=default;endArrow=none;endFill=0;" parent="1" source="Hx_Fb0d7paaMFf6icbwY-133" edge="1">
          <mxGeometry relative="1" as="geometry">
            <mxPoint x="600" y="620" as="targetPoint" />
          </mxGeometry>
        </mxCell>
        <mxCell id="Hx_Fb0d7paaMFf6icbwY-133" value="" style="verticalLabelPosition=bottom;shadow=0;dashed=0;align=center;html=1;verticalAlign=top;strokeWidth=1;shape=ellipse;perimeter=ellipsePerimeter;aspect=fixed;fontFamily=Helvetica;fontSize=24;fontColor=default;" parent="1" vertex="1">
          <mxGeometry x="836" y="616" width="8" height="8" as="geometry" />
        </mxCell>
        <mxCell id="Hx_Fb0d7paaMFf6icbwY-137" style="edgeStyle=orthogonalEdgeStyle;shape=connector;rounded=0;orthogonalLoop=1;jettySize=auto;html=1;exitX=1;exitY=0.5;exitDx=0;exitDy=0;labelBackgroundColor=default;strokeColor=default;fontFamily=Helvetica;fontSize=24;fontColor=default;endArrow=none;endFill=0;" parent="1" source="Hx_Fb0d7paaMFf6icbwY-134" edge="1">
          <mxGeometry relative="1" as="geometry">
            <mxPoint x="1240" y="620" as="targetPoint" />
          </mxGeometry>
        </mxCell>
        <mxCell id="Hx_Fb0d7paaMFf6icbwY-134" value="" style="verticalLabelPosition=bottom;shadow=0;dashed=0;align=center;html=1;verticalAlign=top;strokeWidth=1;shape=ellipse;perimeter=ellipsePerimeter;aspect=fixed;fontFamily=Helvetica;fontSize=24;fontColor=default;" parent="1" vertex="1">
          <mxGeometry x="996" y="616" width="8" height="8" as="geometry" />
        </mxCell>
        <mxCell id="Hx_Fb0d7paaMFf6icbwY-138" value="" style="endArrow=classic;html=1;rounded=0;labelBackgroundColor=default;strokeColor=default;fontFamily=Helvetica;fontSize=11;fontColor=default;shape=connector;" parent="1" edge="1">
          <mxGeometry x="-1" y="-106" width="50" height="50" relative="1" as="geometry">
            <mxPoint x="950" y="620" as="sourcePoint" />
            <mxPoint x="990" y="620" as="targetPoint" />
            <mxPoint x="-26" y="70" as="offset" />
          </mxGeometry>
        </mxCell>
        <mxCell id="Hx_Fb0d7paaMFf6icbwY-140" value="" style="endArrow=none;html=1;rounded=0;labelBackgroundColor=default;strokeColor=default;fontFamily=Helvetica;fontSize=11;fontColor=default;shape=connector;" parent="1" edge="1">
          <mxGeometry x="-1" y="112" width="50" height="50" relative="1" as="geometry">
            <mxPoint x="880" y="620" as="sourcePoint" />
            <mxPoint x="850" y="620" as="targetPoint" />
            <mxPoint x="62" y="100" as="offset" />
          </mxGeometry>
        </mxCell>
        <mxCell id="Hx_Fb0d7paaMFf6icbwY-141" value="&lt;font style=&quot;font-size: 24px;&quot;&gt;`v_{out}`&lt;/font&gt;" style="text;html=1;align=center;verticalAlign=middle;resizable=0;points=[];autosize=1;strokeColor=none;fillColor=none;fontSize=11;fontFamily=Helvetica;fontColor=default;" parent="1" vertex="1">
          <mxGeometry x="860" y="600" width="110" height="40" as="geometry" />
        </mxCell>
        <mxCell id="Hx_Fb0d7paaMFf6icbwY-144" value="&lt;font style=&quot;font-size: 24px;&quot;&gt;`R_{L}`&lt;/font&gt;" style="text;html=1;align=center;verticalAlign=middle;resizable=0;points=[];autosize=1;strokeColor=none;fillColor=none;fontSize=11;fontFamily=Helvetica;fontColor=default;" parent="1" vertex="1">
          <mxGeometry x="1150" y="660" width="100" height="40" as="geometry" />
        </mxCell>
        <mxCell id="Hx_Fb0d7paaMFf6icbwY-145" value="" style="shape=waypoint;sketch=0;fillStyle=solid;size=6;pointerEvents=1;points=[];fillColor=none;resizable=0;rotatable=0;perimeter=centerPerimeter;snapToPoint=1;fontFamily=Helvetica;fontSize=11;fontColor=default;" parent="1" vertex="1">
          <mxGeometry x="580" y="500" width="40" height="40" as="geometry" />
        </mxCell>
        <mxCell id="Hx_Fb0d7paaMFf6icbwY-146" value="" style="shape=waypoint;sketch=0;fillStyle=solid;size=6;pointerEvents=1;points=[];fillColor=none;resizable=0;rotatable=0;perimeter=centerPerimeter;snapToPoint=1;fontFamily=Helvetica;fontSize=11;fontColor=default;" parent="1" vertex="1">
          <mxGeometry x="740" y="500" width="40" height="40" as="geometry" />
        </mxCell>
        <mxCell id="Hx_Fb0d7paaMFf6icbwY-147" value="" style="shape=waypoint;sketch=0;fillStyle=solid;size=6;pointerEvents=1;points=[];fillColor=none;resizable=0;rotatable=0;perimeter=centerPerimeter;snapToPoint=1;fontFamily=Helvetica;fontSize=11;fontColor=default;" parent="1" vertex="1">
          <mxGeometry x="1060" y="500" width="40" height="40" as="geometry" />
        </mxCell>
        <mxCell id="Hx_Fb0d7paaMFf6icbwY-148" value="" style="shape=waypoint;sketch=0;fillStyle=solid;size=6;pointerEvents=1;points=[];fillColor=none;resizable=0;rotatable=0;perimeter=centerPerimeter;snapToPoint=1;fontFamily=Helvetica;fontSize=11;fontColor=default;" parent="1" vertex="1">
          <mxGeometry x="1220" y="500" width="40" height="40" as="geometry" />
        </mxCell>
        <mxCell id="Hx_Fb0d7paaMFf6icbwY-149" value="" style="shape=waypoint;sketch=0;fillStyle=solid;size=6;pointerEvents=1;points=[];fillColor=none;resizable=0;rotatable=0;perimeter=centerPerimeter;snapToPoint=1;fontFamily=Helvetica;fontSize=11;fontColor=default;" parent="1" vertex="1">
          <mxGeometry x="1220" y="540" width="40" height="40" as="geometry" />
        </mxCell>
        <mxCell id="Hx_Fb0d7paaMFf6icbwY-150" value="" style="shape=waypoint;sketch=0;fillStyle=solid;size=6;pointerEvents=1;points=[];fillColor=none;resizable=0;rotatable=0;perimeter=centerPerimeter;snapToPoint=1;fontFamily=Helvetica;fontSize=11;fontColor=default;" parent="1" vertex="1">
          <mxGeometry x="1220" y="600" width="40" height="40" as="geometry" />
        </mxCell>
        <mxCell id="Hx_Fb0d7paaMFf6icbwY-151" value="" style="shape=waypoint;sketch=0;fillStyle=solid;size=6;pointerEvents=1;points=[];fillColor=none;resizable=0;rotatable=0;perimeter=centerPerimeter;snapToPoint=1;fontFamily=Helvetica;fontSize=11;fontColor=default;" parent="1" vertex="1">
          <mxGeometry x="580" y="560" width="40" height="40" as="geometry" />
        </mxCell>
        <mxCell id="Hx_Fb0d7paaMFf6icbwY-152" value="" style="shape=waypoint;sketch=0;fillStyle=solid;size=6;pointerEvents=1;points=[];fillColor=none;resizable=0;rotatable=0;perimeter=centerPerimeter;snapToPoint=1;fontFamily=Helvetica;fontSize=11;fontColor=default;" parent="1" vertex="1">
          <mxGeometry x="580" y="600" width="40" height="40" as="geometry" />
        </mxCell>
        <mxCell id="Hx_Fb0d7paaMFf6icbwY-155" value="&lt;span style=&quot;font-size: 24px;&quot;&gt;`v_{l}`&lt;/span&gt;" style="text;html=1;align=center;verticalAlign=middle;resizable=0;points=[];autosize=1;strokeColor=none;fillColor=none;fontSize=11;fontFamily=Helvetica;fontColor=default;" parent="1" vertex="1">
          <mxGeometry x="580" y="310" width="90" height="40" as="geometry" />
        </mxCell>
        <mxCell id="Hx_Fb0d7paaMFf6icbwY-157" value="&lt;font style=&quot;font-size: 24px;&quot;&gt;`v_{out-}`&lt;/font&gt;" style="text;html=1;align=center;verticalAlign=middle;resizable=0;points=[];autosize=1;strokeColor=none;fillColor=none;fontSize=11;fontFamily=Helvetica;fontColor=default;" parent="1" vertex="1">
          <mxGeometry x="780" y="630" width="120" height="40" as="geometry" />
        </mxCell>
        <mxCell id="Hx_Fb0d7paaMFf6icbwY-158" value="&lt;font style=&quot;font-size: 24px;&quot;&gt;`v_{out+}`&lt;/font&gt;" style="text;html=1;align=center;verticalAlign=middle;resizable=0;points=[];autosize=1;strokeColor=none;fillColor=none;fontSize=11;fontFamily=Helvetica;fontColor=default;" parent="1" vertex="1">
          <mxGeometry x="935" y="630" width="130" height="40" as="geometry" />
        </mxCell>
        <mxCell id="Hx_Fb0d7paaMFf6icbwY-160" value="&lt;font style=&quot;font-size: 24px;&quot;&gt;`-v_{i n}`&lt;/font&gt;" style="text;html=1;align=center;verticalAlign=middle;resizable=0;points=[];autosize=1;strokeColor=none;fillColor=none;fontSize=11;fontFamily=Helvetica;fontColor=default;" parent="1" vertex="1">
          <mxGeometry x="1625" y="525" width="110" height="40" as="geometry" />
        </mxCell>
        <mxCell id="Hx_Fb0d7paaMFf6icbwY-163" value="&lt;font style=&quot;font-size: 24px;&quot;&gt;`V_{CTRL}`&lt;/font&gt;" style="text;html=1;align=center;verticalAlign=middle;resizable=0;points=[];autosize=1;strokeColor=none;fillColor=none;fontSize=11;fontFamily=Helvetica;fontColor=default;" parent="1" vertex="1">
          <mxGeometry x="865" y="520" width="150" height="40" as="geometry" />
        </mxCell>
        <mxCell id="Hx_Fb0d7paaMFf6icbwY-31" value="" style="endArrow=classic;html=1;rounded=0;labelBackgroundColor=default;strokeColor=default;fontFamily=Helvetica;fontSize=11;fontColor=default;shape=connector;" parent="1" edge="1">
          <mxGeometry x="-1" y="-4" width="50" height="50" relative="1" as="geometry">
            <mxPoint x="160.82000000000005" y="420" as="sourcePoint" />
            <mxPoint x="160.82000000000005" y="370" as="targetPoint" />
            <mxPoint as="offset" />
          </mxGeometry>
        </mxCell>
        <mxCell id="Hx_Fb0d7paaMFf6icbwY-32" value="" style="endArrow=none;html=1;rounded=0;labelBackgroundColor=default;strokeColor=default;fontFamily=Helvetica;fontSize=11;fontColor=default;shape=connector;" parent="1" edge="1">
          <mxGeometry x="1" y="-269" width="50" height="50" relative="1" as="geometry">
            <mxPoint x="160.56999999999994" y="460" as="sourcePoint" />
            <mxPoint x="160.56999999999994" y="510" as="targetPoint" />
            <mxPoint x="-9" y="-70" as="offset" />
          </mxGeometry>
        </mxCell>
        <mxCell id="Hx_Fb0d7paaMFf6icbwY-37" value="" style="endArrow=classic;html=1;rounded=0;labelBackgroundColor=default;strokeColor=default;fontFamily=Helvetica;fontSize=11;fontColor=default;shape=connector;" parent="1" edge="1">
          <mxGeometry x="-1" y="-4" width="50" height="50" relative="1" as="geometry">
            <mxPoint x="1679.79" y="421" as="sourcePoint" />
            <mxPoint x="1679.79" y="371" as="targetPoint" />
            <mxPoint as="offset" />
          </mxGeometry>
        </mxCell>
        <mxCell id="Hx_Fb0d7paaMFf6icbwY-38" value="" style="endArrow=none;html=1;rounded=0;labelBackgroundColor=default;strokeColor=default;fontFamily=Helvetica;fontSize=11;fontColor=default;shape=connector;" parent="1" edge="1">
          <mxGeometry width="50" height="50" relative="1" as="geometry">
            <mxPoint x="1679.57" y="461" as="sourcePoint" />
            <mxPoint x="1679.57" y="511" as="targetPoint" />
          </mxGeometry>
        </mxCell>
        <mxCell id="5XcIdOqlf6TmVMvbWogk-47" style="edgeStyle=orthogonalEdgeStyle;shape=connector;rounded=0;orthogonalLoop=1;jettySize=auto;html=1;exitX=1;exitY=0.5;exitDx=0;exitDy=0;labelBackgroundColor=default;strokeColor=default;fontFamily=Helvetica;fontSize=11;fontColor=default;endArrow=classic;endFill=1;" parent="1" edge="1">
          <mxGeometry relative="1" as="geometry">
            <mxPoint x="1590.0000000000489" y="421" as="targetPoint" />
            <mxPoint x="1675.9999999999995" y="361" as="sourcePoint" />
            <Array as="points">
              <mxPoint x="1640.0000000000487" y="361" />
              <mxPoint x="1640.0000000000487" y="421" />
            </Array>
          </mxGeometry>
        </mxCell>
        <mxCell id="JKdnkWJyfVDF3cyXRBnW-1" value="&lt;font style=&quot;font-size: 24px;&quot;&gt;`g_{dn}`&lt;/font&gt;" style="text;html=1;align=center;verticalAlign=middle;resizable=0;points=[];autosize=1;strokeColor=none;fillColor=none;fontSize=11;fontFamily=Helvetica;fontColor=default;" parent="1" vertex="1">
          <mxGeometry x="276" y="460" width="110" height="40" as="geometry" />
        </mxCell>
        <mxCell id="JKdnkWJyfVDF3cyXRBnW-5" value="&lt;font style=&quot;font-size: 24px;&quot;&gt;`v_{i n}`&lt;/font&gt;" style="text;html=1;align=center;verticalAlign=middle;resizable=0;points=[];autosize=1;strokeColor=none;fillColor=none;fontSize=11;fontFamily=Helvetica;fontColor=default;" parent="1" vertex="1">
          <mxGeometry x="100" y="420" width="110" height="40" as="geometry" />
        </mxCell>
        <mxCell id="JKdnkWJyfVDF3cyXRBnW-8" style="edgeStyle=orthogonalEdgeStyle;shape=connector;rounded=0;orthogonalLoop=1;jettySize=auto;html=1;exitX=0.5;exitY=0;exitDx=0;exitDy=0;exitPerimeter=0;labelBackgroundColor=default;strokeColor=default;fontFamily=Helvetica;fontSize=11;fontColor=default;endArrow=none;endFill=0;" parent="1" source="JKdnkWJyfVDF3cyXRBnW-7" edge="1">
          <mxGeometry relative="1" as="geometry">
            <mxPoint x="321.06666666666666" y="520" as="targetPoint" />
          </mxGeometry>
        </mxCell>
        <mxCell id="JKdnkWJyfVDF3cyXRBnW-7" value="" style="pointerEvents=1;verticalLabelPosition=bottom;shadow=0;dashed=0;align=center;html=1;verticalAlign=top;shape=mxgraph.electrical.signal_sources.signal_ground;fontFamily=Helvetica;fontSize=24;fontColor=default;" parent="1" vertex="1">
          <mxGeometry x="299" y="550" width="44" height="30" as="geometry" />
        </mxCell>
        <mxCell id="JKdnkWJyfVDF3cyXRBnW-9" value="" style="shape=waypoint;sketch=0;fillStyle=solid;size=6;pointerEvents=1;points=[];fillColor=none;resizable=0;rotatable=0;perimeter=centerPerimeter;snapToPoint=1;fontFamily=Helvetica;fontSize=11;fontColor=default;" parent="1" vertex="1">
          <mxGeometry x="311" y="510" width="20" height="20" as="geometry" />
        </mxCell>
        <mxCell id="JKdnkWJyfVDF3cyXRBnW-10" value="" style="endArrow=none;html=1;rounded=0;labelBackgroundColor=default;strokeColor=default;fontFamily=Helvetica;fontSize=11;fontColor=default;shape=connector;entryX=0;entryY=0.5;entryDx=0;entryDy=0;" parent="1" target="Hx_Fb0d7paaMFf6icbwY-52" edge="1">
          <mxGeometry width="50" height="50" relative="1" as="geometry">
            <mxPoint x="275" y="360" as="sourcePoint" />
            <mxPoint x="391.00000000000045" y="359.9999999999999" as="targetPoint" />
          </mxGeometry>
        </mxCell>
        <mxCell id="JKdnkWJyfVDF3cyXRBnW-11" value="" style="shape=waypoint;sketch=0;fillStyle=solid;size=6;pointerEvents=1;points=[];fillColor=none;resizable=0;rotatable=0;perimeter=centerPerimeter;snapToPoint=1;fontFamily=Helvetica;fontSize=11;fontColor=default;" parent="1" vertex="1">
          <mxGeometry x="351" y="350" width="20" height="20" as="geometry" />
        </mxCell>
        <mxCell id="JKdnkWJyfVDF3cyXRBnW-15" value="" style="shape=waypoint;sketch=0;fillStyle=solid;size=6;pointerEvents=1;points=[];fillColor=none;resizable=0;rotatable=0;perimeter=centerPerimeter;snapToPoint=1;fontFamily=Helvetica;fontSize=11;fontColor=default;" parent="1" vertex="1">
          <mxGeometry x="271" y="510" width="20" height="20" as="geometry" />
        </mxCell>
        <mxCell id="JKdnkWJyfVDF3cyXRBnW-17" value="" style="shape=waypoint;sketch=0;fillStyle=solid;size=6;pointerEvents=1;points=[];fillColor=none;resizable=0;rotatable=0;perimeter=centerPerimeter;snapToPoint=1;fontFamily=Helvetica;fontSize=11;fontColor=default;" parent="1" vertex="1">
          <mxGeometry x="1470" y="351" width="20" height="20" as="geometry" />
        </mxCell>
        <mxCell id="JKdnkWJyfVDF3cyXRBnW-18" value="" style="shape=waypoint;sketch=0;fillStyle=solid;size=6;pointerEvents=1;points=[];fillColor=none;resizable=0;rotatable=0;perimeter=centerPerimeter;snapToPoint=1;fontFamily=Helvetica;fontSize=11;fontColor=default;" parent="1" vertex="1">
          <mxGeometry x="1550" y="511" width="20" height="20" as="geometry" />
        </mxCell>
        <mxCell id="JKdnkWJyfVDF3cyXRBnW-19" value="" style="endArrow=classic;html=1;rounded=0;labelBackgroundColor=default;strokeColor=default;fontFamily=Helvetica;fontSize=11;fontColor=default;shape=connector;" parent="1" edge="1">
          <mxGeometry width="50" height="50" relative="1" as="geometry">
            <mxPoint x="560" y="660" as="sourcePoint" />
            <mxPoint x="560" y="700" as="targetPoint" />
          </mxGeometry>
        </mxCell>
        <mxCell id="JKdnkWJyfVDF3cyXRBnW-22" value="" style="endArrow=classic;html=1;rounded=0;labelBackgroundColor=default;strokeColor=default;fontFamily=Helvetica;fontSize=11;fontColor=default;shape=connector;" parent="1" edge="1">
          <mxGeometry width="50" height="50" relative="1" as="geometry">
            <mxPoint x="1270" y="660" as="sourcePoint" />
            <mxPoint x="1270" y="700" as="targetPoint" />
          </mxGeometry>
        </mxCell>
        <mxCell id="JKdnkWJyfVDF3cyXRBnW-23" value="&lt;span style=&quot;font-size: 24px;&quot;&gt;`i_{r}`&lt;/span&gt;" style="text;html=1;align=center;verticalAlign=middle;resizable=0;points=[];autosize=1;strokeColor=none;fillColor=none;fontSize=11;fontFamily=Helvetica;fontColor=default;" parent="1" vertex="1">
          <mxGeometry x="1250" y="660" width="80" height="40" as="geometry" />
        </mxCell>
        <mxCell id="JKdnkWJyfVDF3cyXRBnW-24" value="" style="endArrow=classic;html=1;rounded=0;labelBackgroundColor=default;strokeColor=default;fontFamily=Helvetica;fontSize=11;fontColor=default;shape=connector;" parent="1" edge="1">
          <mxGeometry width="50" height="50" relative="1" as="geometry">
            <mxPoint x="589.53" y="535" as="sourcePoint" />
            <mxPoint x="589.53" y="575" as="targetPoint" />
          </mxGeometry>
        </mxCell>
        <mxCell id="JKdnkWJyfVDF3cyXRBnW-26" value="&lt;span style=&quot;font-size: 24px;&quot;&gt;`i_{1}`&lt;/span&gt;" style="text;html=1;align=center;verticalAlign=middle;resizable=0;points=[];autosize=1;strokeColor=none;fillColor=none;fontSize=11;fontFamily=Helvetica;fontColor=default;" parent="1" vertex="1">
          <mxGeometry x="525" y="530" width="90" height="40" as="geometry" />
        </mxCell>
        <mxCell id="JKdnkWJyfVDF3cyXRBnW-27" value="" style="endArrow=classic;html=1;rounded=0;labelBackgroundColor=default;strokeColor=default;fontFamily=Helvetica;fontSize=11;fontColor=default;shape=connector;" parent="1" edge="1">
          <mxGeometry width="50" height="50" relative="1" as="geometry">
            <mxPoint x="754.53" y="530" as="sourcePoint" />
            <mxPoint x="754.53" y="570" as="targetPoint" />
          </mxGeometry>
        </mxCell>
        <mxCell id="JKdnkWJyfVDF3cyXRBnW-28" value="&lt;span style=&quot;font-size: 24px;&quot;&gt;`i_{2}`&lt;/span&gt;" style="text;html=1;align=center;verticalAlign=middle;resizable=0;points=[];autosize=1;strokeColor=none;fillColor=none;fontSize=11;fontFamily=Helvetica;fontColor=default;" parent="1" vertex="1">
          <mxGeometry x="690" y="525" width="90" height="40" as="geometry" />
        </mxCell>
        <mxCell id="JKdnkWJyfVDF3cyXRBnW-29" value="" style="endArrow=classic;html=1;rounded=0;labelBackgroundColor=default;strokeColor=default;fontFamily=Helvetica;fontSize=11;fontColor=default;shape=connector;" parent="1" edge="1">
          <mxGeometry width="50" height="50" relative="1" as="geometry">
            <mxPoint x="1070" y="525" as="sourcePoint" />
            <mxPoint x="1070" y="555" as="targetPoint" />
          </mxGeometry>
        </mxCell>
        <mxCell id="JKdnkWJyfVDF3cyXRBnW-30" value="&lt;span style=&quot;font-size: 24px;&quot;&gt;`i_{3}`&lt;/span&gt;" style="text;html=1;align=center;verticalAlign=middle;resizable=0;points=[];autosize=1;strokeColor=none;fillColor=none;fontSize=11;fontFamily=Helvetica;fontColor=default;" parent="1" vertex="1">
          <mxGeometry x="1005" y="516" width="90" height="40" as="geometry" />
        </mxCell>
        <mxCell id="JKdnkWJyfVDF3cyXRBnW-31" value="" style="endArrow=classic;html=1;rounded=0;labelBackgroundColor=default;strokeColor=default;fontFamily=Helvetica;fontSize=11;fontColor=default;shape=connector;" parent="1" edge="1">
          <mxGeometry width="50" height="50" relative="1" as="geometry">
            <mxPoint x="1250" y="525" as="sourcePoint" />
            <mxPoint x="1250" y="565" as="targetPoint" />
          </mxGeometry>
        </mxCell>
        <mxCell id="JKdnkWJyfVDF3cyXRBnW-32" value="&lt;span style=&quot;font-size: 24px;&quot;&gt;`i_{4}`&lt;/span&gt;" style="text;html=1;align=center;verticalAlign=middle;resizable=0;points=[];autosize=1;strokeColor=none;fillColor=none;fontSize=11;fontFamily=Helvetica;fontColor=default;" parent="1" vertex="1">
          <mxGeometry x="1220" y="525" width="90" height="40" as="geometry" />
        </mxCell>
        <mxCell id="JKdnkWJyfVDF3cyXRBnW-33" value="&lt;span style=&quot;font-size: 24px;&quot;&gt;`v_{r}`&lt;/span&gt;" style="text;html=1;align=center;verticalAlign=middle;resizable=0;points=[];autosize=1;strokeColor=none;fillColor=none;fontSize=11;fontFamily=Helvetica;fontColor=default;" parent="1" vertex="1">
          <mxGeometry x="1196" y="324" width="90" height="40" as="geometry" />
        </mxCell>
        <mxCell id="LBLawg_SK_PcNN09mtRT-2" style="edgeStyle=orthogonalEdgeStyle;rounded=0;orthogonalLoop=1;jettySize=auto;html=1;exitX=0;exitY=0.5;exitDx=0;exitDy=0;exitPerimeter=0;endArrow=none;endFill=0;" edge="1" parent="1" source="LBLawg_SK_PcNN09mtRT-1">
          <mxGeometry relative="1" as="geometry">
            <mxPoint x="419.8888888888889" y="360" as="targetPoint" />
          </mxGeometry>
        </mxCell>
        <mxCell id="LBLawg_SK_PcNN09mtRT-3" style="edgeStyle=orthogonalEdgeStyle;shape=connector;rounded=0;orthogonalLoop=1;jettySize=auto;html=1;exitX=1;exitY=0.5;exitDx=0;exitDy=0;exitPerimeter=0;entryX=0;entryY=0.5;entryDx=0;entryDy=0;labelBackgroundColor=default;strokeColor=default;fontFamily=Helvetica;fontSize=11;fontColor=default;endArrow=none;endFill=0;" edge="1" parent="1" source="LBLawg_SK_PcNN09mtRT-1" target="Hx_Fb0d7paaMFf6icbwY-59">
          <mxGeometry relative="1" as="geometry" />
        </mxCell>
        <mxCell id="LBLawg_SK_PcNN09mtRT-1" value="" style="pointerEvents=1;verticalLabelPosition=bottom;shadow=0;dashed=0;align=center;html=1;verticalAlign=top;shape=mxgraph.electrical.capacitors.capacitor_1;fontFamily=Helvetica;fontSize=11;fontColor=default;direction=south;" vertex="1" parent="1">
          <mxGeometry x="390" y="390" width="60" height="100" as="geometry" />
        </mxCell>
        <mxCell id="LBLawg_SK_PcNN09mtRT-5" style="edgeStyle=orthogonalEdgeStyle;shape=connector;rounded=0;orthogonalLoop=1;jettySize=auto;html=1;exitX=0.5;exitY=0;exitDx=0;exitDy=0;exitPerimeter=0;labelBackgroundColor=default;strokeColor=default;fontFamily=Helvetica;fontSize=11;fontColor=default;endArrow=none;endFill=0;" edge="1" parent="1" source="LBLawg_SK_PcNN09mtRT-4">
          <mxGeometry relative="1" as="geometry">
            <mxPoint x="420.0769230769231" y="520" as="targetPoint" />
          </mxGeometry>
        </mxCell>
        <mxCell id="LBLawg_SK_PcNN09mtRT-4" value="" style="pointerEvents=1;verticalLabelPosition=bottom;shadow=0;dashed=0;align=center;html=1;verticalAlign=top;shape=mxgraph.electrical.signal_sources.signal_ground;fontFamily=Helvetica;fontSize=24;fontColor=default;" vertex="1" parent="1">
          <mxGeometry x="398" y="550" width="44" height="30" as="geometry" />
        </mxCell>
        <mxCell id="LBLawg_SK_PcNN09mtRT-6" value="" style="shape=waypoint;sketch=0;fillStyle=solid;size=6;pointerEvents=1;points=[];fillColor=none;resizable=0;rotatable=0;perimeter=centerPerimeter;snapToPoint=1;fontFamily=Helvetica;fontSize=11;fontColor=default;" vertex="1" parent="1">
          <mxGeometry x="410" y="510" width="20" height="20" as="geometry" />
        </mxCell>
        <mxCell id="LBLawg_SK_PcNN09mtRT-7" value="" style="shape=waypoint;sketch=0;fillStyle=solid;size=6;pointerEvents=1;points=[];fillColor=none;resizable=0;rotatable=0;perimeter=centerPerimeter;snapToPoint=1;fontFamily=Helvetica;fontSize=11;fontColor=default;" vertex="1" parent="1">
          <mxGeometry x="410" y="350" width="20" height="20" as="geometry" />
        </mxCell>
        <mxCell id="LBLawg_SK_PcNN09mtRT-9" value="&lt;span style=&quot;font-size: 24px;&quot;&gt;`C`&lt;/span&gt;" style="text;html=1;align=center;verticalAlign=middle;resizable=0;points=[];autosize=1;strokeColor=none;fillColor=none;fontSize=11;fontFamily=Helvetica;fontColor=default;" vertex="1" parent="1">
          <mxGeometry x="365" y="450" width="60" height="40" as="geometry" />
        </mxCell>
        <mxCell id="LBLawg_SK_PcNN09mtRT-11" style="edgeStyle=orthogonalEdgeStyle;shape=connector;rounded=0;orthogonalLoop=1;jettySize=auto;html=1;exitX=1;exitY=0.5;exitDx=0;exitDy=0;exitPerimeter=0;entryX=1;entryY=0.5;entryDx=0;entryDy=0;labelBackgroundColor=default;strokeColor=default;fontFamily=Helvetica;fontSize=11;fontColor=default;endArrow=none;endFill=0;" edge="1" parent="1" source="LBLawg_SK_PcNN09mtRT-10" target="Hx_Fb0d7paaMFf6icbwY-104">
          <mxGeometry relative="1" as="geometry" />
        </mxCell>
        <mxCell id="LBLawg_SK_PcNN09mtRT-12" style="edgeStyle=orthogonalEdgeStyle;shape=connector;rounded=0;orthogonalLoop=1;jettySize=auto;html=1;exitX=0;exitY=0.5;exitDx=0;exitDy=0;exitPerimeter=0;entryX=1;entryY=0.5;entryDx=0;entryDy=0;labelBackgroundColor=default;strokeColor=default;fontFamily=Helvetica;fontSize=11;fontColor=default;endArrow=none;endFill=0;" edge="1" parent="1" source="LBLawg_SK_PcNN09mtRT-10" target="Hx_Fb0d7paaMFf6icbwY-102">
          <mxGeometry relative="1" as="geometry" />
        </mxCell>
        <mxCell id="LBLawg_SK_PcNN09mtRT-10" value="" style="pointerEvents=1;verticalLabelPosition=bottom;shadow=0;dashed=0;align=center;html=1;verticalAlign=top;shape=mxgraph.electrical.capacitors.capacitor_1;fontFamily=Helvetica;fontSize=11;fontColor=default;direction=south;" vertex="1" parent="1">
          <mxGeometry x="1390" y="390" width="60" height="100" as="geometry" />
        </mxCell>
        <mxCell id="LBLawg_SK_PcNN09mtRT-14" value="" style="shape=waypoint;sketch=0;fillStyle=solid;size=6;pointerEvents=1;points=[];fillColor=none;resizable=0;rotatable=0;perimeter=centerPerimeter;snapToPoint=1;fontFamily=Helvetica;fontSize=11;fontColor=default;" vertex="1" parent="1">
          <mxGeometry x="1410" y="350" width="20" height="20" as="geometry" />
        </mxCell>
        <mxCell id="LBLawg_SK_PcNN09mtRT-15" value="" style="shape=waypoint;sketch=0;fillStyle=solid;size=6;pointerEvents=1;points=[];fillColor=none;resizable=0;rotatable=0;perimeter=centerPerimeter;snapToPoint=1;fontFamily=Helvetica;fontSize=11;fontColor=default;" vertex="1" parent="1">
          <mxGeometry x="1410" y="510" width="20" height="20" as="geometry" />
        </mxCell>
        <mxCell id="LBLawg_SK_PcNN09mtRT-19" style="edgeStyle=orthogonalEdgeStyle;shape=connector;rounded=0;orthogonalLoop=1;jettySize=auto;html=1;exitX=0.5;exitY=0;exitDx=0;exitDy=0;exitPerimeter=0;labelBackgroundColor=default;strokeColor=default;fontFamily=Helvetica;fontSize=11;fontColor=default;endArrow=none;endFill=0;" edge="1" parent="1" source="LBLawg_SK_PcNN09mtRT-16">
          <mxGeometry relative="1" as="geometry">
            <mxPoint x="1420.1234567901236" y="520" as="targetPoint" />
          </mxGeometry>
        </mxCell>
        <mxCell id="LBLawg_SK_PcNN09mtRT-16" value="" style="pointerEvents=1;verticalLabelPosition=bottom;shadow=0;dashed=0;align=center;html=1;verticalAlign=top;shape=mxgraph.electrical.signal_sources.signal_ground;fontFamily=Helvetica;fontSize=24;fontColor=default;" vertex="1" parent="1">
          <mxGeometry x="1397.5" y="550" width="45" height="30" as="geometry" />
        </mxCell>
        <mxCell id="LBLawg_SK_PcNN09mtRT-20" style="edgeStyle=orthogonalEdgeStyle;shape=connector;rounded=0;orthogonalLoop=1;jettySize=auto;html=1;exitX=0.5;exitY=0;exitDx=0;exitDy=0;exitPerimeter=0;labelBackgroundColor=default;strokeColor=default;fontFamily=Helvetica;fontSize=11;fontColor=default;endArrow=none;endFill=0;" edge="1" parent="1" source="LBLawg_SK_PcNN09mtRT-17">
          <mxGeometry relative="1" as="geometry">
            <mxPoint x="1560.1234567901236" y="520" as="targetPoint" />
          </mxGeometry>
        </mxCell>
        <mxCell id="LBLawg_SK_PcNN09mtRT-17" value="" style="pointerEvents=1;verticalLabelPosition=bottom;shadow=0;dashed=0;align=center;html=1;verticalAlign=top;shape=mxgraph.electrical.signal_sources.signal_ground;fontFamily=Helvetica;fontSize=24;fontColor=default;" vertex="1" parent="1">
          <mxGeometry x="1537.5" y="555" width="45" height="30" as="geometry" />
        </mxCell>
        <mxCell id="LBLawg_SK_PcNN09mtRT-21" value="&lt;span style=&quot;font-size: 24px;&quot;&gt;`C`&lt;/span&gt;" style="text;html=1;align=center;verticalAlign=middle;resizable=0;points=[];autosize=1;strokeColor=none;fillColor=none;fontSize=11;fontFamily=Helvetica;fontColor=default;" vertex="1" parent="1">
          <mxGeometry x="1410" y="450" width="60" height="40" as="geometry" />
        </mxCell>
      </root>
    </mxGraphModel>
  </diagram>
</mxfile>
